<?xml version="1.0" encoding="UTF-8"?>
<svg version="1.1" xmlns="http://www.w3.org/2000/svg" width="512" height="512">
<path d="M0 0 C10.20730011 6.1964316 17.902805 4.49828733 29.07006836 2.2277832 C33.06194782 1.53795879 36.99317463 0.85958952 40.4453125 3.265625 C42.21808189 8.11119466 40.13279116 13.05185975 38.1953125 17.640625 C37.1728042 20.39353197 37.25375529 21.11551721 38.3828125 23.828125 C40.31708813 25.81783236 42.23759934 27.63367943 44.3203125 29.453125 C45.51807126 30.53388956 46.71467509 31.61593537 47.91015625 32.69921875 C48.50296387 33.23272949 49.09577148 33.76624023 49.70654297 34.31591797 C78.2089162 60.0286619 97.04165252 96.90588913 102.3828125 134.828125 C102.5209436 135.78585815 102.5209436 135.78585815 102.66186523 136.76293945 C108.47976191 181.81635497 95.69187571 228.67577638 68.8828125 265.203125 C67.39943228 267.09130087 65.89922083 268.96637025 64.3828125 270.828125 C63.19171875 272.32279297 63.19171875 272.32279297 61.9765625 273.84765625 C42.3470986 298.05858428 17.16580509 319.30504701 -11.6171875 331.828125 C-12.2771875 331.828125 -12.9371875 331.828125 -13.6171875 331.828125 C-13.524375 333.1584375 -13.524375 333.1584375 -13.4296875 334.515625 C-14.6171875 337.828125 -14.6171875 337.828125 -16.60546875 339.1640625 C-19.56603006 340.54127176 -22.55013538 341.70726341 -25.6171875 342.828125 C-26.70386719 343.23933594 -27.79054688 343.65054687 -28.91015625 344.07421875 C-46.52047734 350.34826211 -65.07586017 353.75742899 -83.6171875 355.828125 C-84.89807251 355.97169434 -84.89807251 355.97169434 -86.20483398 356.11816406 C-95.92766225 357.06723048 -105.66954841 357.07161162 -115.4296875 357.078125 C-116.79471405 357.07913712 -116.79471405 357.07913712 -118.18731689 357.08016968 C-176.43365587 357.01165663 -176.43365587 357.01165663 -190.6171875 342.828125 C-191.03125 340.6640625 -191.03125 340.6640625 -191.2421875 338.203125 C-191.35433594 336.97722656 -191.35433594 336.97722656 -191.46875 335.7265625 C-191.54222656 334.78683594 -191.54222656 334.78683594 -191.6171875 333.828125 C-192.26816406 333.75464844 -192.91914063 333.68117188 -193.58984375 333.60546875 C-197.80225191 332.52383104 -201.28207249 330.51940078 -205.0546875 328.390625 C-205.85165039 327.94251465 -206.64861328 327.4944043 -207.46972656 327.03271484 C-248.22945867 303.71697373 -277.08558696 266.44604575 -289.92138672 221.43603516 C-291.55842502 215.30030074 -292.7074922 209.11202022 -293.6171875 202.828125 C-293.79894531 201.67054688 -293.98070312 200.51296875 -294.16796875 199.3203125 C-298.24882615 165.35941718 -291.56218793 131.368206 -276.6171875 100.828125 C-276.26785156 100.11027832 -275.91851562 99.39243164 -275.55859375 98.65283203 C-267.67205931 82.64504486 -257.75506599 67.5558437 -245.46875 54.5546875 C-244.81648438 53.86117187 -244.16421875 53.16765625 -243.4921875 52.453125 C-242.62207031 51.57527344 -242.62207031 51.57527344 -241.734375 50.6796875 C-240.35936717 48.81821995 -240.35936717 48.81821995 -240.87109375 46.2578125 C-241.58439506 43.785196 -241.58439506 43.785196 -242.6796875 41.328125 C-243.72256664 38.54711397 -244.08117349 36.76670292 -243.6171875 33.828125 C-242.0859375 32.1171875 -242.0859375 32.1171875 -239.6171875 30.828125 C-237.71606168 30.99236913 -235.81290677 31.17120415 -233.9296875 31.47900391 C-228.12397023 32.40558601 -223.50537872 32.79803913 -218.421875 29.4921875 C-214.53701783 26.55787014 -211.05682581 23.26776331 -207.6171875 19.828125 C-207.41334314 16.2759483 -207.27056172 12.73064957 -207.1875 9.17382812 C-207.0476455 5.78527014 -206.87569295 3.35155839 -205.359375 0.28125 C-203.6171875 -1.171875 -203.6171875 -1.171875 -201.5234375 -1.44921875 C-200.729375 -1.33707031 -199.9353125 -1.22492188 -199.1171875 -1.109375 C-198.23546875 -0.98691406 -197.35375 -0.86445312 -196.4453125 -0.73828125 C-192.63327502 0.02517929 -188.9522136 1.09902966 -185.2578125 2.3046875 C-178.89925551 3.56511152 -173.54174199 0.66471709 -167.8671875 -1.859375 C-117.85335272 -23.45813263 -48.47724105 -30.28122542 0 0 Z " fill="#FED716" transform="translate(351.6171875,87.171875)"/>
<path d="M0 0 C3.48951032 2.22059748 5.50115569 4.16667252 7 8 C8.3304199 19.47873913 5.84146872 30.65273791 3.62060547 41.85742188 C2.49774758 47.54327033 1.42288991 53.23738385 0.375 58.9375 C0.15755127 60.11812012 -0.05989746 61.29874023 -0.28393555 62.51513672 C-1.63022197 70.11088366 -2.48487832 77.61907424 -3 85.3125 C-3.53743831 93.29475812 -4.8373996 100.11037887 -7.78125 107.55078125 C-10.8491215 116.23325091 -11.36429278 124.72032549 -11.375 133.875 C-11.39949219 134.96941406 -11.42398438 136.06382812 -11.44921875 137.19140625 C-11.49348767 149.6604844 -7.73005568 160.15576683 0.25 169.6875 C6.54097215 174.97763567 11.91390701 177.84375783 20.29296875 177.421875 C26.19084013 176.50272621 30.88631616 174.14893454 35.3125 170.1875 C36.199375 169.465625 37.08625 168.74375 38 168 C39.3426406 168.29360706 40.67432078 168.63742107 42 169 C44.41728062 168.96936626 46.8342187 168.90296954 49.25 168.8125 C55.6010513 168.6784631 59.62242885 169.58731062 65 173 C65.99 173.33 66.98 173.66 68 174 C68 174.66 68 175.32 68 176 C66.47632813 176.61875 66.47632813 176.61875 64.921875 177.25 C52.75576743 182.30548585 42.35503565 188.37615652 32.7421875 197.53125 C31 199 31 199 29 199 C29 201.97 29 204.94 29 208 C32.9284743 208.30887267 35.26032696 208.47409311 38.6328125 206.3125 C39.45523438 205.549375 40.27765625 204.78625 41.125 204 C61.09846599 186.64243133 84.29713632 180.82716499 110 179 C110.061875 177.72125 110.12375 176.4425 110.1875 175.125 C110.22230469 174.40570313 110.25710938 173.68640625 110.29296875 172.9453125 C110.19628906 172.30335938 110.09960938 171.66140625 110 171 C106.55114696 168.70076464 105.07607839 168.72112098 101 168.5625 C67.95591359 166.5442794 67.95591359 166.5442794 59.74609375 157.5234375 C56.87100351 153.36838539 56.48473382 149.98090638 57 145 C62.73886315 137.57323593 72.1080815 134.99203076 81.09130859 133.69897461 C88.42639966 132.85885517 95.74922909 132.8164108 103.125 132.8125 C104.34832031 132.80025391 105.57164062 132.78800781 106.83203125 132.77539062 C113.26844467 132.7649532 118.85695998 133.05237709 125 135 C125.86367188 135.26039063 126.72734375 135.52078125 127.6171875 135.7890625 C140.55330717 140.57856009 148.31747135 149.62171522 154.3828125 161.76953125 C160.17724904 176.25562259 158.05422033 194.84302431 152.15429688 209.03417969 C150.29813838 213.11102887 148.2187704 217.0586556 146.08203125 220.99414062 C134.99835339 241.54095861 125.07069757 265.18715636 131 289 C132.98 289.33 134.96 289.66 137 290 C133.47217106 293.08913519 129.51137449 294.44406886 125.125 295.875 C124.33907471 296.1325708 123.55314941 296.3901416 122.7434082 296.65551758 C106.2362543 301.90185225 89.19640806 305.07950462 72 307 C71.14607666 307.09571289 70.29215332 307.19142578 69.41235352 307.29003906 C59.68952525 308.23910548 49.94763909 308.24348662 40.1875 308.25 C38.82247345 308.25101212 38.82247345 308.25101212 37.42987061 308.25204468 C13.69778053 308.22412948 -8.74709487 305.63021349 -31 297 C-29 296 -27 295 -25 294 C-24.00402812 281.62781599 -26.74659215 270.16919076 -29.33300781 258.14794922 C-30.86943272 250.89660855 -32.20251959 243.60503761 -33.55908203 236.31835938 C-33.95559115 234.233503 -34.37670763 232.15587628 -34.80859375 230.078125 C-40.05408007 203.44301314 -40.47833473 176.22268938 -40.3225708 149.17913818 C-40.30911941 146.01806113 -40.31442028 142.85712444 -40.31943321 139.69603157 C-40.44634681 33.68334983 -40.44634681 33.68334983 -14 5 C-9.76314349 1.36044469 -5.73860878 -1.14772176 0 0 Z " fill="#FDFDFD" transform="translate(196,136)"/>
<path d="M0 0 C6.14290891 4.3598777 9.84462622 9.57663845 11.75 16.875 C12.23164022 20.84034501 12.27212926 24.75847198 12.25 28.75 C12.24718018 29.91982422 12.24436035 31.08964844 12.24145508 32.29492188 C12.04829674 43.26114549 10.4882461 53.85367527 8.74902344 64.65332031 C7.05549849 75.24469022 5.87021324 85.80992674 5 96.5 C4.94137787 97.21099854 4.88275574 97.92199707 4.82235718 98.65454102 C4.0006328 108.71967606 3.33737407 118.79363991 2.75 128.875 C2.67120605 130.11330566 2.59241211 131.35161133 2.51123047 132.62744141 C2.30487999 136.21008785 2.17557541 139.78832743 2.0625 143.375 C1.94358398 145.169375 1.94358398 145.169375 1.82226562 147 C1.60703115 153.70428027 1.60703115 153.70428027 4.85791016 159.3137207 C7.40865084 161.32556253 10.02903341 163.10351663 12.75 164.875 C24.74046954 176.8483403 30.62188988 192.35427399 31.125 209.1875 C30.55171763 228.10581833 24.3601479 243.98825504 14.95996094 260.19628906 C11.6777819 265.87992437 8.87368131 271.65121865 6.75 277.875 C6.48670898 278.64312012 6.22341797 279.41124023 5.95214844 280.20263672 C3.61713568 287.70881516 3.48373899 294.5646771 3.75 302.375 C3.82638267 304.67666453 3.88953267 306.97881801 3.9375 309.28125 C3.97230469 310.28478516 4.00710938 311.28832031 4.04296875 312.32226562 C3.75 314.875 3.75 314.875 2.42578125 316.70117188 C-0.17475282 318.52275809 -2.16904032 318.26011996 -5.25 317.875 C-7.80949546 316.02157225 -8.22918798 314.93743607 -9.25 311.875 C-10.75192067 287.81964756 -4.03885534 268.1178593 7.76928711 247.37890625 C16.59723631 231.53035253 20.18618975 213.42629552 17.171875 195.421875 C13.94680531 184.45663806 7.01693895 174.32787931 -2.69921875 168.23828125 C-21.23192946 158.33335623 -47.45644094 159.37042359 -67.41015625 164.72265625 C-72.6816797 166.43815861 -77.04695377 168.12565559 -80.25 172.875 C-80.99919592 178.02572195 -80.34859958 181.68277704 -77.25 185.875 C-64.75619347 194.1131748 -48.73510219 194.91843459 -34.2109375 195.43359375 C-30.973814 195.91617285 -29.53440474 196.55772613 -27.25 198.875 C-26.8125 201.875 -26.8125 201.875 -27.25 204.875 C-29.51207001 207.77596873 -30.19356531 207.86679762 -34.06640625 208.4296875 C-35.64795093 208.54343855 -37.23004335 208.64973112 -38.8125 208.75 C-59.11606678 210.51350537 -79.18694479 217.53610581 -94.765625 231.05859375 C-101.36592967 236.75975512 -101.36592967 236.75975512 -104.4375 237.16015625 C-106.375 236.875 -106.375 236.875 -109.25 235.875 C-110.0625 232.6875 -110.0625 232.6875 -110.25 228.875 C-108.3125 226.375 -108.3125 226.375 -105.25 223.875 C-104.72535156 223.36453125 -104.20070313 222.8540625 -103.66015625 222.328125 C-95.97001364 214.99135874 -81.25325712 203.875 -70.25 203.875 C-70.25 203.215 -70.25 202.555 -70.25 201.875 C-71.5803125 201.7203125 -71.5803125 201.7203125 -72.9375 201.5625 C-76.25 200.875 -76.25 200.875 -78.484375 199.33984375 C-82.10782119 197.42064556 -84.73877997 197.61245632 -88.8125 197.75 C-95.95268396 197.96229487 -95.95268396 197.96229487 -98.51171875 197.2109375 C-99.08535156 197.10007812 -99.65898437 196.98921875 -100.25 196.875 C-101.97677814 197.96329446 -101.97677814 197.96329446 -103.5 199.625 C-109.45571654 205.05075871 -115.49311123 206.52629288 -123.50390625 206.29296875 C-132.68153173 204.89608977 -138.94158713 197.99031494 -144.25 190.875 C-145.69921875 187.90234375 -145.69921875 187.90234375 -146.9375 184.8125 C-147.35386719 183.79027344 -147.77023438 182.76804687 -148.19921875 181.71484375 C-154.10846415 165.74450394 -151.29420099 143.6448023 -144.69140625 128.23828125 C-142.53858968 122.58976851 -142.44484896 116.66412086 -142 110.6875 C-140.59978275 94.37691659 -137.60265565 78.46158549 -134.35391235 62.42973328 C-133.05763513 56.02673208 -132.06385501 49.91885961 -131.9375 43.375 C-131.90011719 42.1065625 -131.86273438 40.838125 -131.82421875 39.53125 C-132.3198028 35.27559245 -133.57240435 33.17355939 -136.25 29.875 C-139.24181417 28.37909291 -140.8916206 28.44756989 -144.25 28.875 C-154.58367063 33.45939206 -159.09102303 42.56655791 -163.02368164 52.61645508 C-177.47901033 91.30946554 -177.67548566 133.38332735 -177.625 174.1875 C-177.6249081 174.9936034 -177.62481621 175.7997068 -177.62472153 176.63023758 C-177.62096342 202.20796516 -177.11836571 227.53875817 -173.25 252.875 C-172.95319336 254.81947021 -172.95319336 254.81947021 -172.65039062 256.80322266 C-170.51103176 270.19844779 -167.56472031 283.39374288 -164.265625 296.546875 C-162.75730099 302.7508356 -162.08232122 308.80074504 -162 315.1875 C-161.97421875 316.40050781 -161.9484375 317.61351562 -161.921875 318.86328125 C-162.03015625 319.85714844 -162.1384375 320.85101563 -162.25 321.875 C-165.70245824 324.17663882 -167.19738713 324.21990322 -171.25 323.875 C-173.57231449 321.55268551 -173.71269264 320.53551377 -174.328125 317.37109375 C-174.51648926 316.41944336 -174.70485352 315.46779297 -174.89892578 314.48730469 C-175.09728027 313.43961914 -175.29563477 312.39193359 -175.5 311.3125 C-175.71253418 310.21711914 -175.92506836 309.12173828 -176.14404297 307.99316406 C-176.85714842 304.28913475 -177.55510765 300.5824879 -178.25 296.875 C-178.50613572 295.51642953 -178.7623215 294.1578685 -179.01855469 292.79931641 C-183.50836229 268.93222358 -187.56218259 245.13108093 -189.25 220.875 C-189.33902588 219.60156738 -189.42805176 218.32813477 -189.51977539 217.01611328 C-190.39275099 203.34294553 -190.43614614 189.66955986 -190.43530273 175.97265625 C-190.43747702 172.04155437 -190.45566751 168.11073963 -190.47460938 164.1796875 C-190.71330373 56.50453841 -190.71330373 56.50453841 -160.26953125 24.6796875 C-153.34411855 18.49102083 -147.41754918 16.56015609 -138.1953125 16.66015625 C-133.1656828 17.02703905 -130.41099293 18.90750589 -126.625 22.0625 C-119.53439561 30.45926836 -118.53515967 39.1604559 -119.25 49.875 C-119.88427129 55.38283407 -120.99062187 60.81409179 -122.0625 66.25 C-122.32734619 67.64040183 -122.59102083 69.03102733 -122.85351562 70.421875 C-123.78446853 75.33288684 -124.7287917 80.24126556 -125.69915771 85.14465332 C-126.14134678 87.3794029 -126.57685188 89.6153784 -127.01171875 91.8515625 C-127.15084183 92.54204681 -127.2899649 93.23253113 -127.43330383 93.94393921 C-127.74904088 95.57982647 -128.00576586 97.2269203 -128.25 98.875 C-127.92 99.205 -127.59 99.535 -127.25 99.875 C-126.71890625 99.52566406 -126.1878125 99.17632812 -125.640625 98.81640625 C-124.93421875 98.36136719 -124.2278125 97.90632813 -123.5 97.4375 C-122.80390625 96.98503906 -122.1078125 96.53257812 -121.390625 96.06640625 C-115.08599965 92.55744506 -107.23633213 93.2247726 -100.25 93.875 C-96.82177495 95.06701149 -94.12615606 96.68216396 -91.25 98.875 C-90.239375 99.638125 -89.22875 100.40125 -88.1875 101.1875 C-87.548125 101.744375 -86.90875 102.30125 -86.25 102.875 C-85.64671875 102.46507812 -85.0434375 102.05515625 -84.421875 101.6328125 C-83.62265625 101.09398437 -82.8234375 100.55515625 -82 100 C-81.21109375 99.46632813 -80.4221875 98.93265625 -79.609375 98.3828125 C-75.93027422 96.03159909 -73.35007697 94.61642747 -68.921875 94.6796875 C-68.12265625 94.68613281 -67.3234375 94.69257813 -66.5 94.69921875 C-65.2625 94.72435547 -65.2625 94.72435547 -64 94.75 C-63.15953125 94.75902344 -62.3190625 94.76804687 -61.453125 94.77734375 C-59.38529396 94.80084183 -57.31761005 94.83671092 -55.25 94.875 C-55.15203125 93.75867188 -55.0540625 92.64234375 -54.953125 91.4921875 C-48.7704391 25.14334083 -48.7704391 25.14334083 -27.25 4.875 C-19.24321726 -1.00309126 -9.40713909 -5.55876401 0 0 Z " fill="#060504" transform="translate(334.25,108.125)"/>
<path d="M0 0 C3.77968706 2.87584885 5.5936041 5.52173936 7 10 C7.25035024 12.78005212 7.38085247 15.40757822 7.375 18.1875 C7.37258301 19.43418457 7.37258301 19.43418457 7.37011719 20.70605469 C7.22279221 28.58938526 6.01582322 36.19392439 4.71118164 43.95556641 C3.01276233 54.2885447 1.86920114 64.64687134 0.8125 75.0625 C0.68603088 76.28628357 0.68603088 76.28628357 0.55700684 77.53479004 C-1.15744719 94.19344243 -2.07068976 110.82689997 -2.5625 127.5625 C-2.60590236 128.97852231 -2.6495216 130.39453798 -2.69335938 131.81054688 C-2.79805209 135.20695915 -2.89988368 138.60344936 -3 142 C-9.47232824 141.11164122 -9.47232824 141.11164122 -12.56518555 140.45727539 C-15.38145606 139.92835985 -18.09361948 139.78638289 -20.95703125 139.68359375 C-22.06884766 139.64169922 -23.18066406 139.59980469 -24.32617188 139.55664062 C-25.47666016 139.51732422 -26.62714844 139.47800781 -27.8125 139.4375 C-28.98232422 139.39431641 -30.15214844 139.35113281 -31.35742188 139.30664062 C-34.23817031 139.20081721 -37.11900123 139.09873175 -40 139 C-41.26014616 32.58550324 -41.26014616 32.58550324 -13.1875 3.8125 C-9.17037751 0.03438251 -5.53374227 -0.94530338 0 0 Z " fill="#FCFCFC" transform="translate(328,118)"/>
<path d="M0 0 C1.77276939 4.84556966 -0.31252134 9.78623475 -2.25 14.375 C-3.2725083 17.12790697 -3.19155721 17.84989221 -2.0625 20.5625 C-0.12827454 22.55215576 1.79169414 24.36878748 3.875 26.1875 C5.06007631 27.25095437 6.24365164 28.31608356 7.42578125 29.3828125 C8.01697754 29.91422852 8.60817383 30.44564453 9.21728516 30.99316406 C23.3684302 43.90312154 23.3684302 43.90312154 24.53515625 49.35546875 C23.64006338 54.1585488 20.78048854 56.52485387 17.375 59.875 C16.08707729 61.19261405 14.80189781 62.51291532 13.51953125 63.8359375 C12.90029785 64.47112305 12.28106445 65.10630859 11.64306641 65.76074219 C8.44989259 69.13400625 5.65072623 72.79866361 2.9375 76.5625 C3.86755859 76.80033203 3.86755859 76.80033203 4.81640625 77.04296875 C10.63018452 78.57469199 16.3572028 80.29668362 22.0625 82.1875 C22.72580322 82.40559326 23.38910645 82.62368652 24.07250977 82.84838867 C28.81366161 84.43866161 28.81366161 84.43866161 29.9375 85.5625 C30.43287955 89.4629022 30.14856819 91.21923879 28.06640625 94.60546875 C27.22644429 95.66611284 26.37002369 96.71387223 25.5 97.75 C25.04915039 98.30518311 24.59830078 98.86036621 24.13378906 99.43237305 C23.20062497 100.57989062 22.26226118 101.72319858 21.31884766 102.86230469 C19.992355 104.49498317 18.73022345 106.15972811 17.48046875 107.8515625 C16.72378906 108.84929687 15.96710938 109.84703125 15.1875 110.875 C14.51203125 111.77863281 13.8365625 112.68226563 13.140625 113.61328125 C10.9375 115.5625 10.9375 115.5625 7.796875 115.98046875 C4.9375 115.5625 4.9375 115.5625 2.9375 113.5625 C2.57256539 110.67237207 2.6282296 109.08902276 4.11499023 106.55786133 C4.65325439 105.9264624 5.19151855 105.29506348 5.74609375 104.64453125 C6.32810547 103.94779297 6.91011719 103.25105469 7.50976562 102.53320312 C8.43305664 101.46489258 8.43305664 101.46489258 9.375 100.375 C10.58333725 98.94511304 11.79043004 97.51417323 12.99609375 96.08203125 C13.53548584 95.45401611 14.07487793 94.82600098 14.63061523 94.17895508 C16.01687195 92.58256125 16.01687195 92.58256125 16.9375 90.5625 C15.99648438 90.4696875 15.05546875 90.376875 14.0859375 90.28125 C9.02728738 89.55749351 4.35226307 87.7884783 -0.4375 86.0625 C-1.35144531 85.74152344 -2.26539063 85.42054688 -3.20703125 85.08984375 C-9.91861679 82.70638321 -9.91861679 82.70638321 -11.0625 81.5625 C-11.64568259 78.57368921 -11.6659926 76.48160004 -9.95703125 73.87890625 C-8.06037424 71.70126302 -6.072106 69.636932 -4.0625 67.5625 C-2.34290754 65.71545293 -0.6320621 63.86049004 1.0793457 62.00585938 C3.68863075 59.18194245 6.31310748 56.3723759 8.9375 53.5625 C2.27759625 50.47171594 -4.58857034 48.6689045 -11.67578125 46.8125 C-12.58199219 46.565 -13.48820312 46.3175 -14.421875 46.0625 C-15.24139648 45.8459375 -16.06091797 45.629375 -16.90527344 45.40625 C-19.39201458 44.43361788 -20.55682713 43.77908379 -22.0625 41.5625 C-22.51894388 37.22252947 -21.72020993 33.81771947 -20.3125 29.7265625 C-19.9515625 28.66308594 -19.590625 27.59960938 -19.21875 26.50390625 C-18.8371875 25.40949219 -18.455625 24.31507812 -18.0625 23.1875 C-17.6809375 22.06988281 -17.299375 20.95226562 -16.90625 19.80078125 C-15.96642472 17.05179232 -15.01829705 14.30596799 -14.0625 11.5625 C-15.13886719 11.69527344 -16.21523438 11.82804687 -17.32421875 11.96484375 C-24.37403615 12.82349093 -31.4283605 13.6544887 -38.5 14.3125 C-40.04494141 14.45945312 -40.04494141 14.45945312 -41.62109375 14.609375 C-44.0625 14.5625 -44.0625 14.5625 -46.0625 12.5625 C-45.6875 8.9375 -45.6875 8.9375 -45.0625 5.5625 C-40.77359995 3.91292306 -36.86135677 3.26833029 -32.3359375 2.83984375 C-29.60869809 2.50713929 -27.01462509 1.81213955 -24.36328125 1.10546875 C-4.97779723 -3.46937383 -4.97779723 -3.46937383 0 0 Z " fill="#050500" transform="translate(392.0625,90.4375)"/>
<path d="M0 0 C2.60538088 1.69652708 4.61641327 3.43994172 6.6875 5.75 C5.33320076 9.25642824 3.80587236 12.65648146 2.2253418 16.06591797 C-1.7647271 24.79305984 -4.28817806 33.39132569 -6.3125 42.75 C-6.53808594 43.6059375 -6.76367188 44.461875 -6.99609375 45.34375 C-8.36437416 50.85461729 -8.51467849 56.28659112 -8.5625 61.9375 C-8.5718457 62.69853027 -8.58119141 63.45956055 -8.59082031 64.24365234 C-8.56309249 69.12908072 -7.77616526 73.0965941 -6.3125 77.75 C-6.375 80.4375 -6.375 80.4375 -7.3125 82.75 C-12.02717068 87.1020037 -15.32217106 88.30216925 -21.64453125 88.2109375 C-26.52190353 87.36828753 -29.29236804 84.51509785 -32.3125 80.75 C-36.01576483 75.06613334 -38.13663596 69.56473158 -38.3125 62.75 C-38.374375 61.62078125 -38.43625 60.4915625 -38.5 59.328125 C-39.06800901 41.36484015 -34.90704325 20.46458592 -22.9765625 6.484375 C-16.25684022 -0.5192792 -9.39957869 -3.54701083 0 0 Z " fill="#FCFCFC" transform="translate(233.3125,214.25)"/>
<path d="M0 0 C9.09811715 1.15707762 26.32157308 3.55204183 33.1171875 10.34765625 C33.3046875 13.28515625 33.3046875 13.28515625 33.1171875 16.34765625 C32.4571875 17.00765625 31.7971875 17.66765625 31.1171875 18.34765625 C22.56814282 18.05286161 14.3505532 15.50013582 6.1171875 13.34765625 C6.07231201 14.3013208 6.02743652 15.25498535 5.98120117 16.23754883 C5.81088679 19.77742696 5.62199515 23.31611175 5.42749023 26.85473633 C5.34592179 28.38605015 5.26938615 29.91764072 5.19799805 31.44946289 C5.09446924 33.65212757 4.97284274 35.85316068 4.84765625 38.0546875 C4.8052607 39.08140312 4.8052607 39.08140312 4.76200867 40.12886047 C4.58459693 42.98259342 4.4108796 44.93990697 2.71655273 47.29223633 C-3.84352538 51.62122697 -20.29814378 45.77652157 -27.8828125 44.34765625 C-27.51929687 45.10908936 -27.15578125 45.87052246 -26.78125 46.6550293 C-25.43172542 49.49357259 -24.09093627 52.33603278 -22.75585938 55.18139648 C-22.17727644 56.40991444 -21.59528184 57.63683185 -21.00976562 58.86206055 C-20.16672945 60.62770519 -19.33711354 62.39973765 -18.5078125 64.171875 C-18.00507813 65.23494873 -17.50234375 66.29802246 -16.984375 67.39331055 C-15.87094432 70.37948622 -15.31864464 72.21180107 -15.8828125 75.34765625 C-18.66070241 78.25660181 -21.41445847 78.88886588 -25.3046875 79.515625 C-26.32949219 79.68642578 -27.35429688 79.85722656 -28.41015625 80.03320312 C-29.47363281 80.19884766 -30.53710938 80.36449219 -31.6328125 80.53515625 C-33.25123047 80.80102539 -33.25123047 80.80102539 -34.90234375 81.07226562 C-37.5610284 81.50753701 -40.22096292 81.93225793 -42.8828125 82.34765625 C-42.5940625 83.27707031 -42.3053125 84.20648438 -42.0078125 85.1640625 C-41.6365625 86.40027344 -41.2653125 87.63648438 -40.8828125 88.91015625 C-40.5115625 90.12832031 -40.1403125 91.34648437 -39.7578125 92.6015625 C-38.87871129 96.36521457 -38.57839112 99.49957974 -38.8828125 103.34765625 C-40.8828125 105.34765625 -40.8828125 105.34765625 -43.3203125 105.72265625 C-45.8828125 105.34765625 -45.8828125 105.34765625 -47.44042969 103.62475586 C-49.92348662 99.7047369 -50.8867768 95.34689015 -52.1328125 90.91015625 C-52.41382812 89.96849609 -52.69484375 89.02683594 -52.984375 88.05664062 C-53.24476562 87.14333984 -53.50515625 86.23003906 -53.7734375 85.2890625 C-54.12970215 84.04684937 -54.12970215 84.04684937 -54.49316406 82.77954102 C-54.94105339 79.9841616 -54.69851529 78.05029982 -53.8828125 75.34765625 C-49.78849836 71.82445469 -44.86521167 71.44883522 -39.6953125 70.72265625 C-38.07641698 70.48319727 -36.45790398 70.24113332 -34.83984375 69.99609375 C-34.12803955 69.89474121 -33.41623535 69.79338867 -32.68286133 69.68896484 C-30.78977489 69.41478774 -30.78977489 69.41478774 -28.8828125 68.34765625 C-30.10894826 65.55462244 -31.33808927 62.76300488 -32.5703125 59.97265625 C-32.93318359 59.14934814 -33.29605469 58.32604004 -33.66992188 57.4777832 C-35.95012834 52.33972472 -38.34550843 47.31140603 -41.0703125 42.390625 C-42.09638901 39.81063455 -42.30794414 38.09772655 -41.8828125 35.34765625 C-40.375 33.47265625 -40.375 33.47265625 -37.8828125 32.34765625 C-35.98168668 32.51190038 -34.07853177 32.6907354 -32.1953125 32.99853516 C-26.38959523 33.92511726 -21.77100372 34.31757038 -16.6875 31.01171875 C-12.80264283 28.07740139 -9.32245081 24.78729456 -5.8828125 21.34765625 C-5.67896814 17.79547955 -5.53618672 14.25018082 -5.453125 10.69335938 C-5.31277138 7.29270816 -5.15053713 4.8782081 -3.6015625 1.80859375 C-1.8828125 0.34765625 -1.8828125 0.34765625 0 0 Z " fill="#050400" transform="translate(149.8828125,85.65234375)"/>
<path d="M0 0 C-0.66 14.52 -1.32 29.04 -2 44 C-10.91 46.475 -10.91 46.475 -20 49 C-26.88374916 52.44187458 -32.02718527 55.18677258 -34.5859375 62.7265625 C-35.16728926 65.91851272 -35.09251063 69.00885177 -35.0625 72.25 C-35.05347656 73.51328125 -35.04445312 74.7765625 -35.03515625 76.078125 C-35.02355469 77.04234375 -35.01195312 78.0065625 -35 79 C-36.8125 78.9375 -36.8125 78.9375 -39 78 C-42.24765496 72.45468438 -42.50930292 67.38984266 -42.4375 61.0625 C-42.43137695 60.14025635 -42.42525391 59.2180127 -42.41894531 58.26782227 C-42.22672874 49.72083834 -40.57436404 42.11234303 -38 34 C-37.67644531 32.91074219 -37.35289062 31.82148438 -37.01953125 30.69921875 C-33.37458935 18.99077272 -28.25914722 6.84806961 -17.125 0.4375 C-11.67080885 -1.93858327 -5.58527117 -1.86175706 0 0 Z " fill="#FBFBFB" transform="translate(278,215)"/>
<path d="M0 0 C3.8451351 1.60365824 6.62784712 4.18711616 9.625 7 C10.14553955 7.48404297 10.6660791 7.96808594 11.20239258 8.46679688 C25.66293246 21.98879739 25.66293246 21.98879739 27 26 C19.4361303 24.66840664 12.19944404 22.66738325 4.875 20.375 C3.823125 20.05015625 2.77125 19.7253125 1.6875 19.390625 C-0.87639986 18.59814686 -3.43881816 17.80120992 -6 17 C-5.53916866 15.24243264 -5.07335974 13.48616991 -4.60546875 11.73046875 C-4.34660889 10.75231201 -4.08774902 9.77415527 -3.82104492 8.76635742 C-2.8706527 5.56418844 -1.64348369 2.89566174 0 0 Z " fill="#F7D116" transform="translate(387,110)"/>
<path d="M0 0 C0.10251672 5.12583611 0.03590199 9.94997778 -1 15 C-6.0302076 14.47462276 -11.01885239 13.89405214 -16 13 C-14.64523565 8.93570695 -11.86732088 7.29023202 -8.5625 4.8125 C-7.96373047 4.34908203 -7.36496094 3.88566406 -6.74804688 3.40820312 C-2.26568253 0 -2.26568253 0 0 0 Z " fill="#F7D216" transform="translate(145,108)"/>
</svg>
