<?xml version="1.0" encoding="UTF-8"?>
<svg xmlns="http://www.w3.org/2000/svg" version="1.1" viewBox="0 0 1200 800">
  <!-- Generator: Adobe Illustrator 28.7.7, SVG Export Plug-In . SVG Version: 1.2.0 Build 194)  -->
  <g>
    <g id="Background">
      <rect width="1200" height="800" transform="translate(1200 800) rotate(180)" style="fill: #80eaf2;"/>
    </g>
    <g id="Graphic_elements">
      <g>
        <g>
          <path d="M480.224,335.186c-1.338-1.79-2.786-3.357-4.342-4.705l-39.043-39.043c-5.158-5.782-11.73-8.699-19.738-8.699-6.51,0-12.353,2.088-17.539,6.253-5.185,4.17-8.998,10.324-11.439,18.454-1.629,5.085-2.44,10.781-2.44,17.081,0,1.553.078,3.081.197,4.597l-35.368-35.368c-6.211-7.536-15.728-11.322-28.579-11.322-13.221,0-24.811,4.018-34.772,12.049-9.966,8.035-16.776,17.844-20.437,29.436-1.02,3.254-1.525,6.305-1.525,9.149,0,3.461.81,5.186,2.44,5.186.81,0,2.184-.711,4.118-2.135,1.93-1.421,3.608-2.135,5.033-2.135,1.83,0,3.303.761,4.423,2.287,1.116,1.525,1.983,4.222,2.593,8.082l12.201,74.731c1.83,10.982,5.233,19.065,10.218,24.249,4.981,5.186,12.659,8.693,23.029,10.525-7.322,7.049-15.102,11.872-23.329,14.494l-24.102-24.102c-6-6.407-13.678-9.608-23.029-9.608-5.895,0-10.981,1.524-15.251,4.575-4.27,3.05-7.32,7.419-9.151,13.115-1.015,3.661-1.525,7.016-1.525,10.066,0,6.911,1.982,13.421,5.948,19.522,1.734,2.667,3.84,5.087,6.241,7.292,6.396,6.396,12.792,12.792,19.188,19.188,9.062,9.062,17.509,18.187,27.88,25.79,9.701,7.112,20.971,9.479,32.995,9.479,21.352,0,42.751-6.71,64.208-20.131,21.452-13.421,40.463-31.218,57.039-53.379,16.571-22.162,28.62-45.754,36.145-70.764,3.861-12.402,5.796-23.993,5.796-34.774,0-12.4-2.698-22.214-8.083-29.434Z" style="opacity: .3;"/>
          <path d="M461.505,316.467c-1.338-1.79-2.786-3.357-4.342-4.705l-39.043-39.043c-5.159-5.782-11.73-8.699-19.738-8.699-6.51,0-12.353,2.087-17.539,6.253-5.186,4.17-8.998,10.324-11.439,18.454-1.63,5.085-2.44,10.781-2.44,17.081,0,1.553.078,3.081.197,4.597l-35.368-35.369c-6.211-7.536-15.728-11.322-28.579-11.322-13.221,0-24.811,4.018-34.772,12.049-9.966,8.035-16.776,17.844-20.437,29.436-1.02,3.254-1.525,6.305-1.525,9.149,0,3.461.811,5.186,2.44,5.186.81,0,2.184-.71,4.118-2.135,1.93-1.421,3.607-2.135,5.033-2.135,1.83,0,3.303.761,4.423,2.287,1.116,1.526,1.983,4.223,2.593,8.083l12.201,74.731c1.83,10.982,5.233,19.065,10.218,24.249,4.981,5.186,12.659,8.693,23.029,10.525-7.322,7.049-15.102,11.872-23.329,14.493l-24.102-24.102c-6-6.407-13.678-9.608-23.029-9.608-5.895,0-10.981,1.524-15.251,4.575-4.27,3.05-7.32,7.419-9.151,13.115-1.015,3.661-1.525,7.016-1.525,10.066,0,6.911,1.982,13.421,5.948,19.522,1.734,2.667,3.84,5.087,6.241,7.292,6.396,6.396,12.792,12.792,19.188,19.188,9.062,9.062,17.509,18.187,27.88,25.79,9.701,7.112,20.971,9.479,32.995,9.479,21.352,0,42.751-6.71,64.208-20.131,21.452-13.421,40.463-31.218,57.039-53.379,16.571-22.162,28.62-45.754,36.145-70.764,3.861-12.402,5.796-23.993,5.796-34.774,0-12.4-2.698-22.214-8.083-29.434Z" style="fill: #ffb1ff; stroke: #6522a3; stroke-linecap: round; stroke-linejoin: round; stroke-width: 6.575px;"/>
          <path d="M419.886,274.849c5.385,7.22,8.083,17.034,8.083,29.434,0,10.781-1.935,22.372-5.796,34.774-7.525,25.011-19.574,48.603-36.145,70.765-16.576,22.162-35.587,39.959-57.039,53.38-21.457,13.421-42.856,20.131-64.208,20.131-10.575,0-19.674-1.829-27.299-5.49-7.626-3.661-13.422-8.542-17.387-14.641-3.965-6.101-5.948-12.611-5.948-19.522,0-3.05.51-6.405,1.525-10.066,1.83-5.696,4.881-10.066,9.151-13.115,4.27-3.051,9.356-4.575,15.251-4.575,9.351,0,17.029,3.202,23.029,9.608,5.996,6.405,9.808,15.198,11.438,26.384,13.011-.611,25.012-6.205,35.993-16.776-10.37-1.831-18.048-5.338-23.029-10.525-4.985-5.185-8.388-13.267-10.218-24.249l-12.201-74.731c-.61-3.86-1.477-6.557-2.593-8.083-1.12-1.526-2.592-2.287-4.423-2.287-1.425,0-3.103.714-5.033,2.135-1.935,1.425-3.308,2.135-4.118,2.135-1.629,0-2.44-1.725-2.44-5.186,0-2.844.505-5.895,1.525-9.149,3.661-11.592,10.471-21.401,20.437-29.436,9.961-8.03,21.552-12.049,34.772-12.049,13.012,0,22.62,3.865,28.825,11.591,6.201,7.73,10.218,19.626,12.049,35.687l9.151,67.106c.61,5.085,2.44,7.625,5.49,7.625,3.66,0,7.931-3.303,12.812-9.912,4.88-6.606,9.656-16.015,14.335-28.215-6.1-5.49-10.78-11.791-14.031-18.911-3.255-7.115-4.88-14.742-4.88-22.877,0-6.301.81-11.996,2.44-17.081,2.44-8.13,6.253-14.284,11.439-18.454,5.185-4.166,11.029-6.253,17.539-6.253,8.946,0,16.114,3.613,21.504,10.828Z" style="fill: #fff494;"/>
          <path d="M419.886,274.849c5.385,7.22,8.083,17.034,8.083,29.434,0,10.781-1.935,22.372-5.796,34.774-7.525,25.011-19.574,48.603-36.145,70.765-16.576,22.162-35.587,39.959-57.039,53.38-21.457,13.421-42.856,20.131-64.208,20.131-10.575,0-19.674-1.829-27.299-5.49-7.626-3.661-13.422-8.542-17.387-14.641-3.965-6.101-5.948-12.611-5.948-19.522,0-3.05.51-6.405,1.525-10.066,1.83-5.696,4.881-10.066,9.151-13.115,4.27-3.051,9.356-4.575,15.251-4.575,9.351,0,17.029,3.202,23.029,9.608,5.996,6.405,9.808,15.198,11.438,26.384,13.011-.611,25.012-6.205,35.993-16.776-10.37-1.831-18.048-5.338-23.029-10.525-4.985-5.185-8.388-13.267-10.218-24.249l-12.201-74.731c-.61-3.86-1.477-6.557-2.593-8.083-1.12-1.526-2.592-2.287-4.423-2.287-1.425,0-3.103.714-5.033,2.135-1.935,1.425-3.308,2.135-4.118,2.135-1.629,0-2.44-1.725-2.44-5.186,0-2.844.505-5.895,1.525-9.149,3.661-11.592,10.471-21.401,20.437-29.436,9.961-8.03,21.552-12.049,34.772-12.049,13.012,0,22.62,3.865,28.825,11.591,6.201,7.73,10.218,19.626,12.049,35.687l9.151,67.106c.61,5.085,2.44,7.625,5.49,7.625,3.66,0,7.931-3.303,12.812-9.912,4.88-6.606,9.656-16.015,14.335-28.215-6.1-5.49-10.78-11.791-14.031-18.911-3.255-7.115-4.88-14.742-4.88-22.877,0-6.301.81-11.996,2.44-17.081,2.44-8.13,6.253-14.284,11.439-18.454,5.185-4.166,11.029-6.253,17.539-6.253,8.946,0,16.114,3.613,21.504,10.828Z" style="fill: none; stroke: #6522a3; stroke-linecap: round; stroke-linejoin: round; stroke-width: 6.575px;"/>
        </g>
        <g>
          <path d="M667.483,352.306l-40.689-40.688c-1.992-2.038-4.249-3.972-6.804-5.788-11.591-8.235-30.302-12.353-56.124-12.353-24.607,0-45.501,6.358-62.682,19.064-17.186,12.711-28.32,31.57-33.4,56.582-1.63,8.136-2.44,15.251-2.44,21.352,0,41.068,34.394,68.586,63.454,91.515,14.436,11.39,32.943,17.081,55.514,17.081,15.251,0,28.262-2.745,39.043-8.235,10.775-5.49,18.911-12.148,24.402-19.979,5.49-7.825,8.131-15.298,7.931-22.419,0-1.658-.443-2.796-1.325-3.414l-20.619-20.62c6.671-1.408,12.935-3.29,18.742-5.706,13.927-5.796,22.42-15.404,25.469-28.825.81-3.25,1.22-6.81,1.22-10.676,0-10.501-3.902-19.463-11.69-26.89Z" style="opacity: .3;"/>
          <path d="M648.941,333.763l-40.689-40.689c-1.992-2.038-4.249-3.972-6.804-5.787-11.591-8.235-30.302-12.354-56.124-12.354-24.607,0-45.501,6.358-62.682,19.064-17.186,12.711-28.32,31.57-33.4,56.582-1.63,8.136-2.441,15.251-2.441,21.352,0,41.068,34.394,68.586,63.454,91.515,14.436,11.39,32.943,17.081,55.514,17.081,15.251,0,28.262-2.745,39.043-8.235,10.775-5.49,18.911-12.149,24.402-19.979,5.49-7.825,8.131-15.299,7.93-22.419,0-1.658-.443-2.796-1.325-3.415l-20.619-20.619c6.671-1.409,12.935-3.29,18.742-5.706,13.927-5.796,22.419-15.404,25.469-28.825.81-3.25,1.22-6.81,1.22-10.676,0-10.501-3.901-19.463-11.69-26.89Z" style="fill: #ffb1ff; stroke: #6522a3; stroke-linecap: round; stroke-linejoin: round; stroke-width: 6.575px;"/>
          <path d="M601.448,287.287c11.59,8.236,17.386,18.759,17.386,31.57,0,3.866-.41,7.426-1.22,10.676-3.05,13.422-11.543,23.03-25.469,28.825-13.93,5.795-30.349,8.693-49.261,8.693-9.56,0-18.506-.61-26.842-1.83-.205,10.576,2.64,17.997,8.541,22.267,5.895,4.27,14.131,6.406,24.707,6.406,4.881,0,9.556-.558,14.031-1.678,4.471-1.116,10.166-2.793,17.081-5.033,5.69-2.03,9.556-3.051,11.591-3.051,2.235,0,3.355,1.325,3.355,3.966.2,7.12-2.44,14.593-7.93,22.419-5.491,7.831-13.627,14.489-24.402,19.979-10.781,5.49-23.792,8.235-39.043,8.235-22.572,0-41.078-5.691-55.514-17.081-14.441-11.386-21.657-27.957-21.657-49.719,0-6.101.81-13.217,2.441-21.352,5.08-25.012,16.214-43.871,33.4-56.582,17.181-12.706,38.075-19.064,62.682-19.064,25.822,0,44.533,4.118,56.124,12.354ZM521.532,347.224c8.541,0,15.046-3.965,19.522-11.896,4.47-7.931,6.605-16.776,6.405-26.537-.205-5.69-1.83-8.541-4.88-8.541-2.24,0-4.88,1.783-7.93,5.338-3.051,3.56-6.053,8.897-8.998,16.014-2.95,7.12-5.443,15.556-7.473,25.317.81.205,1.93.305,3.355.305Z" style="fill: #fff494;"/>
          <path d="M601.448,287.287c11.59,8.236,17.386,18.759,17.386,31.57,0,3.866-.41,7.426-1.22,10.676-3.05,13.422-11.543,23.03-25.469,28.825-13.93,5.795-30.349,8.693-49.261,8.693-9.56,0-18.506-.61-26.842-1.83-.205,10.576,2.64,17.997,8.541,22.267,5.895,4.27,14.131,6.406,24.707,6.406,4.881,0,9.556-.558,14.031-1.678,4.471-1.116,10.166-2.793,17.081-5.033,5.69-2.03,9.556-3.051,11.591-3.051,2.235,0,3.355,1.325,3.355,3.966.2,7.12-2.44,14.593-7.93,22.419-5.491,7.831-13.627,14.489-24.402,19.979-10.781,5.49-23.792,8.235-39.043,8.235-22.572,0-41.078-5.691-55.514-17.081-14.441-11.386-21.657-27.957-21.657-49.719,0-6.101.81-13.217,2.441-21.352,5.08-25.012,16.214-43.871,33.4-56.582,17.181-12.706,38.075-19.064,62.682-19.064,25.822,0,44.533,4.118,56.124,12.354ZM521.532,347.224c8.541,0,15.046-3.965,19.522-11.896,4.47-7.931,6.605-16.776,6.405-26.537-.205-5.69-1.83-8.541-4.88-8.541-2.24,0-4.88,1.783-7.93,5.338-3.051,3.56-6.053,8.897-8.998,16.014-2.95,7.12-5.443,15.556-7.473,25.317.81.205,1.93.305,3.355.305Z" style="fill: none; stroke: #6522a3; stroke-linecap: round; stroke-linejoin: round; stroke-width: 6.575px;"/>
        </g>
        <g>
          <path d="M875.927,362.237c-2.897-4.228-6.795-7.956-10.254-11.377-5.627-5.566-11.101-11.286-16.699-16.882-3.941-3.94-7.882-7.88-11.825-11.818-1.409-1.407-3.308-4.25-5.136-5.124-.855-.872-1.76-1.733-2.769-2.571-6.611-5.49-16.066-9.76-28.367-12.811-12.306-3.048-26.894-4.574-43.77-4.574-25.622,0-45.401,4.931-59.328,14.793-13.93,9.865-20.894,23.133-20.894,39.805,0,9.152,3.427,16.301,8.59,23.592,5.908,8.344,13.067,18.607,19.006,26.907-5.168-4.528-15.208-7.489-23.631-7.489-8.745,0-15.761,2.238-21.046,6.71-5.286,4.474-7.931,11.085-7.931,19.826,0,3.916.788,7.806,2.423,11.372,5.056,11.028,16.083,19.103,24.565,27.585,6.147,6.148,12.145,12.461,18.662,18.225,11.099,9.815,22.579,16.897,37.153,20.584,15.494,3.92,31.642,5.031,47.577,5.031,24.197,0,43.718-3.965,58.564-11.895,8.532-4.558,16.364-10.764,21.567-19.021,5.538-8.788,7.986-17.381,5.384-27.559-3.806-14.892-14.853-24.439-25.264-34.85-6.913-6.913-13.826-13.826-20.74-20.74.497.405.975.818,1.514,1.207,7.016,5.085,15.604,7.625,25.775,7.625,9.96,0,17.738-2.235,23.334-6.71,6.584-5.267,9.363-13.63,7.324-21.802-.718-2.879-2.078-5.544-3.786-8.036Z" style="opacity: .3;"/>
          <path d="M854.852,341.162c-2.897-4.228-6.795-7.956-10.254-11.378-5.628-5.566-11.101-11.286-16.699-16.882-3.941-3.94-7.882-7.88-11.825-11.818-1.409-1.407-3.308-4.249-5.135-5.124-.855-.872-1.76-1.733-2.769-2.571-6.611-5.49-16.066-9.76-28.367-12.812-12.306-3.048-26.895-4.574-43.77-4.574-25.622,0-45.401,4.931-59.328,14.793-13.931,9.865-20.894,23.133-20.894,39.805,0,9.151,3.427,16.301,8.59,23.592,5.908,8.344,13.067,18.607,19.006,26.907-5.168-4.527-15.208-7.489-23.631-7.489-8.745,0-15.761,2.238-21.046,6.71-5.286,4.474-7.931,11.085-7.931,19.825,0,3.917.788,7.806,2.423,11.372,5.056,11.028,16.083,19.103,24.565,27.585,6.147,6.147,12.145,12.461,18.662,18.225,11.099,9.815,22.578,16.896,37.153,20.583,15.494,3.92,31.642,5.031,47.577,5.031,24.197,0,43.718-3.964,58.564-11.895,8.532-4.558,16.364-10.764,21.567-19.021,5.538-8.788,7.986-17.381,5.384-27.56-3.806-14.891-14.853-24.439-25.264-34.85-6.913-6.913-13.826-13.826-20.739-20.74.496.405.975.818,1.513,1.207,7.016,5.085,15.604,7.625,25.775,7.625,9.96,0,17.738-2.235,23.334-6.71,6.584-5.267,9.363-13.63,7.325-21.802-.718-2.878-2.078-5.544-3.786-8.036Z" style="fill: #ffb1ff; stroke: #6522a3; stroke-linecap: round; stroke-linejoin: round; stroke-width: 6.575px;"/>
          <path d="M779.802,280.577c12.301,3.051,21.756,7.321,28.367,12.812,6.606,5.49,9.913,11.696,9.913,18.607,0,7.12-2.797,12.914-8.388,17.387-5.595,4.474-13.373,6.71-23.333,6.71-10.171,0-18.759-2.542-25.775-7.627-7.015-5.08-10.523-11.485-10.523-19.216,0-2.64.405-5.185,1.22-7.625-3.661-1.014-6.916-1.524-9.761-1.524-5.086,0-9.304,1.218-12.659,3.659-3.355,2.44-4.932,5.9-4.727,10.371,0,5.291,2.64,9.76,7.93,13.421,5.285,3.661,13.826,8.235,25.622,13.726,10.166,4.476,18.554,8.594,25.165,12.354,6.605,3.763,12.201,8.492,16.776,14.183,4.575,5.694,6.863,12.405,6.863,20.131,0,1.63-.41,4.68-1.22,9.151-3.256,13.625-12.306,24.401-27.147,32.332-14.846,7.931-34.367,11.897-58.564,11.897-27.252,0-48.856-3.663-64.818-10.982-15.966-7.319-23.944-17.385-23.944-30.197,0-8.741,2.645-15.351,7.931-19.826,5.285-4.472,12.301-6.71,21.046-6.71,10.166,0,18.86,3.154,26.08,9.455,7.216,6.305,10.828,14.336,10.828,24.097,0,2.645-.305,5.39-.915,8.236,4.88,1.219,9.556,1.83,14.031,1.83,5.285,0,9.656-1.421,13.116-4.27,3.455-2.846,5.185-6.812,5.185-11.897-.205-4.675-2.546-8.693-7.016-12.049-4.475-3.355-11.591-7.369-21.351-12.047-9.151-4.272-16.676-8.283-22.572-12.05-5.901-3.76-10.934-8.488-15.099-14.183-4.17-5.69-6.253-12.4-6.253-20.131,0-16.671,6.963-29.94,20.894-39.805,13.926-9.862,33.705-14.793,59.328-14.793,16.876,0,31.464,1.526,43.77,4.574Z" style="fill: #fff494;"/>
          <path d="M779.802,280.577c12.301,3.051,21.756,7.321,28.367,12.812,6.606,5.49,9.913,11.696,9.913,18.607,0,7.12-2.797,12.914-8.388,17.387-5.595,4.474-13.373,6.71-23.333,6.71-10.171,0-18.759-2.542-25.775-7.627-7.015-5.08-10.523-11.485-10.523-19.216,0-2.64.405-5.185,1.22-7.625-3.661-1.014-6.916-1.524-9.761-1.524-5.086,0-9.304,1.218-12.659,3.659-3.355,2.44-4.932,5.9-4.727,10.371,0,5.291,2.64,9.76,7.93,13.421,5.285,3.661,13.826,8.235,25.622,13.726,10.166,4.476,18.554,8.594,25.165,12.354,6.605,3.763,12.201,8.492,16.776,14.183,4.575,5.694,6.863,12.405,6.863,20.131,0,1.63-.41,4.68-1.22,9.151-3.256,13.625-12.306,24.401-27.147,32.332-14.846,7.931-34.367,11.897-58.564,11.897-27.252,0-48.856-3.663-64.818-10.982-15.966-7.319-23.944-17.385-23.944-30.197,0-8.741,2.645-15.351,7.931-19.826,5.285-4.472,12.301-6.71,21.046-6.71,10.166,0,18.86,3.154,26.08,9.455,7.216,6.305,10.828,14.336,10.828,24.097,0,2.645-.305,5.39-.915,8.236,4.88,1.219,9.556,1.83,14.031,1.83,5.285,0,9.656-1.421,13.116-4.27,3.455-2.846,5.185-6.812,5.185-11.897-.205-4.675-2.546-8.693-7.016-12.049-4.475-3.355-11.591-7.369-21.351-12.047-9.151-4.272-16.676-8.283-22.572-12.05-5.901-3.76-10.934-8.488-15.099-14.183-4.17-5.69-6.253-12.4-6.253-20.131,0-16.671,6.963-29.94,20.894-39.805,13.926-9.862,33.705-14.793,59.328-14.793,16.876,0,31.464,1.526,43.77,4.574Z" style="fill: none; stroke: #6522a3; stroke-linecap: round; stroke-linejoin: round; stroke-width: 6.575px;"/>
        </g>
        <g>
          <path d="M924.126,460.748c.007-.012.018-.023.033-.03.072-.035.156-.034.237-.033,3.742.06,8.19-.938,11.217-3.237,2.204-1.674,4.367-4.54,6.484-8.6l41.551-74.104c5.467-9.879,8.203-18.699,8.204-26.465,0-13.377-12.831-22.491-21.54-31.201-9.32-9.32-18.64-18.64-27.96-27.96-1.383-1.383-2.766-2.766-4.149-4.149-1.032-1.319-2.235-2.53-3.625-3.625-5.384-4.235-12.927-6.351-22.629-6.351-25.407,0-38.729,13.145-39.963,39.432l-3.44,83.896c-.203,4.739.781,8.116,2.939,10.148l13.715,13.716c-4.051-2.676-8.721-4.014-14.009-4.014-5.649,0-10.719,1.456-15.218,4.367-4.498,2.911-7.985,6.661-10.454,11.248-2.473,4.589-3.705,9.262-3.705,14.027.173,6.881,2.646,12.703,7.41,17.467,7.978,7.973,16.033,15.876,24.01,23.853,7.252,7.252,14.587,14.42,21.745,21.765,6.013,6.17,11.873,10.729,20.915,10.729,5.644,0,10.718-1.456,15.218-4.367,4.499-2.911,8.026-6.657,10.586-11.248,2.556-4.585,3.837-9.262,3.837-14.026,0-6.881-2.427-12.704-7.278-17.469-2.754-2.703-5.576-5.335-8.389-7.976-1.358-1.275-2.84-2.497-4.097-3.872-.268-.293-1.799-1.658-1.647-1.922Z" style="opacity: .3;"/>
          <path d="M905.464,442.087c.007-.013.018-.023.033-.03.073-.035.156-.034.237-.033,3.742.061,8.19-.938,11.217-3.237,2.204-1.674,4.367-4.54,6.484-8.6l41.551-74.104c5.467-9.879,8.203-18.699,8.203-26.465,0-13.377-12.831-22.492-21.54-31.201-9.32-9.32-18.64-18.64-27.96-27.96-1.383-1.383-2.766-2.766-4.149-4.149-1.031-1.319-2.235-2.53-3.625-3.625-5.384-4.235-12.927-6.351-22.629-6.351-25.407,0-38.729,13.145-39.962,39.433l-3.44,83.896c-.203,4.739.781,8.116,2.939,10.148l13.716,13.715c-4.052-2.676-8.722-4.014-14.009-4.014-5.649,0-10.719,1.456-15.218,4.367-4.498,2.911-7.985,6.662-10.454,11.248-2.473,4.589-3.705,9.262-3.705,14.027.173,6.881,2.646,12.704,7.41,17.467,7.978,7.973,16.033,15.876,24.011,23.853,7.252,7.252,14.586,14.42,21.745,21.765,6.013,6.17,11.872,10.729,20.915,10.729,5.644,0,10.718-1.456,15.217-4.367,4.499-2.911,8.026-6.657,10.586-11.248,2.555-4.585,3.836-9.262,3.836-14.026,0-6.881-2.426-12.703-7.278-17.468-2.754-2.703-5.576-5.335-8.389-7.975-1.358-1.275-2.84-2.498-4.097-3.872-.268-.293-1.798-1.658-1.647-1.922Z" style="fill: #ffb1ff; stroke: #6522a3; stroke-linecap: round; stroke-linejoin: round; stroke-width: 6.575px;"/>
          <path d="M870.395,406.654c4.851,4.765,7.278,10.587,7.278,17.468,0,4.764-1.281,9.441-3.836,14.026-2.56,4.591-6.088,8.337-10.586,11.248-4.5,2.911-9.574,4.367-15.218,4.367-6.881,0-12.703-2.381-17.468-7.145-4.764-4.764-7.237-10.586-7.41-17.467,0-4.765,1.232-9.438,3.705-14.027,2.469-4.586,5.956-8.336,10.454-11.248,4.499-2.911,9.569-4.367,15.218-4.367,7.054,0,13.01,2.381,17.864,7.145ZM893.287,256.331c9.701,0,17.244,2.116,22.629,6.351,5.38,4.235,8.072,10.148,8.072,17.732,0,7.766-2.737,16.587-8.203,26.465l-41.551,74.104c-2.118,4.061-4.28,6.926-6.484,8.6-2.208,1.679-4.895,2.514-8.071,2.514-6.881,0-10.148-4.143-9.792-12.438l3.44-83.896c1.233-26.287,14.556-39.433,39.962-39.433Z" style="fill: #fff494;"/>
          <path d="M870.395,406.654c4.851,4.765,7.278,10.587,7.278,17.468,0,4.764-1.281,9.441-3.836,14.026-2.56,4.591-6.088,8.337-10.586,11.248-4.5,2.911-9.574,4.367-15.218,4.367-6.881,0-12.703-2.381-17.468-7.145-4.764-4.764-7.237-10.586-7.41-17.467,0-4.765,1.232-9.438,3.705-14.027,2.469-4.586,5.956-8.336,10.454-11.248,4.499-2.911,9.569-4.367,15.218-4.367,7.054,0,13.01,2.381,17.864,7.145ZM893.287,256.331c9.701,0,17.244,2.116,22.629,6.351,5.38,4.235,8.072,10.148,8.072,17.732,0,7.766-2.737,16.587-8.203,26.465l-41.551,74.104c-2.118,4.061-4.28,6.926-6.484,8.6-2.208,1.679-4.895,2.514-8.071,2.514-6.881,0-10.148-4.143-9.792-12.438l3.44-83.896c1.233-26.287,14.556-39.433,39.962-39.433Z" style="fill: none; stroke: #6522a3; stroke-linecap: round; stroke-linejoin: round; stroke-width: 6.575px;"/>
          <line x1="907.111" y1="444.009" x2="870.395" y2="406.654" style="fill: none; stroke: #6522a3; stroke-linecap: round; stroke-linejoin: round; stroke-width: 6.575px;"/>
        </g>
      </g>
    </g>
  </g>
</svg>